<svg width="662" height="207" viewBox="0 0 662 207" fill="none" xmlns="http://www.w3.org/2000/svg">
<g filter="url(#filter0_f_28_11)">
<path d="M363.556 147.167L233.333 132.611M233.333 132.611L38 154.444V59.8333L233.333 38M233.333 132.611V38M233.333 38L428.667 59.8333M428.667 59.8333L624 38V99.8611M428.667 59.8333V114.417M558.889 125.333L493.778 147.167H624L558.889 169" stroke="url(#paint0_linear_28_11)" stroke-opacity="0.2" stroke-width="15" stroke-linecap="round" stroke-linejoin="round"/>
</g>
<g filter="url(#filter1_d_28_11)">
<path d="M219.728 160.091H222.91V163.273H219.728V160.091ZM219.728 163.273H222.91V166.455H219.728V163.273ZM219.728 166.455H222.91V169.636H219.728V166.455ZM219.728 169.636H222.91V172.818H219.728V169.636ZM219.728 172.818H222.91V176H219.728V172.818ZM222.91 160.091H226.092V163.273H222.91V160.091ZM222.91 172.818H226.092V176H222.91V172.818ZM222.91 166.455H226.092V169.636H222.91V166.455ZM226.092 160.091H229.273V163.273H226.092V160.091ZM226.092 172.818H229.273V176H226.092V172.818ZM232.443 163.273H235.625V166.455H232.443V163.273ZM232.443 166.455H235.625V169.636H232.443V166.455ZM232.443 169.636H235.625V172.818H232.443V169.636ZM235.625 172.818H238.807V176H235.625V172.818ZM238.807 163.273H241.988V166.455H238.807V163.273ZM238.807 166.455H241.988V169.636H238.807V166.455ZM238.807 169.636H241.988V172.818H238.807V169.636ZM248.34 163.273H251.521V166.455H248.34V163.273ZM251.521 166.455H254.703V169.636H251.521V166.455ZM245.158 166.455H248.34V169.636H245.158V166.455ZM251.521 169.636H254.703V172.818H251.521V169.636ZM248.34 169.636H251.521V172.818H248.34V169.636ZM245.158 169.636H248.34V172.818H245.158V169.636ZM245.158 172.818H248.34V176H245.158V172.818ZM248.34 176H251.521V179.182H248.34V176ZM257.873 163.273H261.054V166.455H257.873V163.273ZM257.873 166.455H261.054V169.636H257.873V166.455ZM257.873 169.636H261.054V172.818H257.873V169.636ZM257.873 172.818H261.054V176H257.873V172.818ZM261.054 163.273H264.236V166.455H261.054V163.273ZM267.409 163.273H270.591V166.455H267.409V163.273ZM267.409 166.455H270.591V169.636H267.409V166.455ZM267.409 169.636H270.591V172.818H267.409V169.636ZM273.772 163.273H276.954V166.455H273.772V163.273ZM273.772 166.455H276.954V169.636H273.772V166.455ZM273.772 169.636H276.954V172.818H273.772V169.636ZM270.591 172.818H273.772V176H270.591V172.818ZM267.409 176H270.591V179.182H267.409V176ZM280.124 160.091H283.305V163.273H280.124V160.091ZM280.124 163.273H283.305V166.455H280.124V163.273ZM280.124 166.455H283.305V169.636H280.124V166.455ZM280.124 169.636H283.305V172.818H280.124V169.636ZM280.124 172.818H283.305V176H280.124V172.818ZM283.305 172.818H286.487V176H283.305V172.818ZM283.305 163.273H286.487V166.455H283.305V163.273ZM289.66 160.091H292.841V163.273H289.66V160.091ZM289.66 163.273H292.841V166.455H289.66V163.273ZM289.66 166.455H292.841V169.636H289.66V166.455ZM289.66 169.636H292.841V172.818H289.66V169.636ZM289.66 172.818H292.841V176H289.66V172.818ZM292.841 163.273H296.023V166.455H292.841V163.273ZM296.023 166.455H299.205V169.636H296.023V166.455ZM296.023 169.636H299.205V172.818H296.023V169.636ZM296.023 172.818H299.205V176H296.023V172.818ZM302.375 172.818H305.556V176H302.375V172.818ZM302.375 169.636H305.556V172.818H302.375V169.636ZM302.375 166.455H305.556V169.636H302.375V166.455ZM302.375 160.091H305.556V163.273H302.375V160.091ZM308.732 172.818H311.914V176H308.732V172.818ZM308.732 169.636H311.914V172.818H308.732V169.636ZM308.732 166.455H311.914V169.636H308.732V166.455ZM308.732 163.273H311.914V166.455H308.732V163.273ZM311.914 163.273H315.096V166.455H311.914V163.273ZM315.096 166.455H318.277V169.636H315.096V166.455ZM315.096 169.636H318.277V172.818H315.096V169.636ZM315.096 172.818H318.277V176H315.096V172.818ZM327.81 163.273H330.992V166.455H327.81V163.273ZM327.81 166.455H330.992V169.636H327.81V166.455ZM327.81 169.636H330.992V172.818H327.81V169.636ZM327.81 172.818H330.992V176H327.81V172.818ZM327.81 176H330.992V179.182H327.81V176ZM324.629 176H327.81V179.182H324.629V176ZM321.447 176H324.629V179.182H321.447V176ZM324.629 163.273H327.81V166.455H324.629V163.273ZM321.447 166.455H324.629V169.636H321.447V166.455ZM321.447 169.636H324.629V172.818H321.447V169.636ZM343.698 172.818H346.88V176H343.698V172.818ZM343.698 169.636H346.88V172.818H343.698V169.636ZM343.698 166.455H346.88V169.636H343.698V166.455ZM343.698 160.091H346.88V163.273H343.698V160.091ZM356.419 163.273H359.601V166.455H356.419V163.273ZM353.237 163.273H356.419V166.455H353.237V163.273ZM350.055 166.455H353.237V169.636H350.055V166.455ZM356.419 169.636H359.601V172.818H356.419V169.636ZM356.419 172.818H359.601V176H356.419V172.818ZM350.055 172.818H353.237V176H350.055V172.818ZM350.055 163.273H353.237V166.455H350.055V163.273ZM353.237 172.818H356.419V176H353.237V172.818ZM362.77 166.455H365.952V169.636H362.77V166.455ZM365.952 166.455H369.134V169.636H365.952V166.455ZM369.134 166.455H372.315V169.636H369.134V166.455ZM381.848 163.273H385.03V166.455H381.848V163.273ZM381.848 166.455H385.03V169.636H381.848V166.455ZM381.848 169.636H385.03V172.818H381.848V169.636ZM381.848 172.818H385.03V176H381.848V172.818ZM378.667 163.273H381.848V166.455H378.667V163.273ZM378.667 172.818H381.848V176H378.667V172.818ZM375.485 166.455H378.667V169.636H375.485V166.455ZM375.485 169.636H378.667V172.818H375.485V169.636ZM397.736 172.818H400.918V176H397.736V172.818ZM397.736 169.636H400.918V172.818H397.736V169.636ZM397.736 166.455H400.918V169.636H397.736V166.455ZM397.736 163.273H400.918V166.455H397.736V163.273ZM400.918 163.273H404.099V166.455H400.918V163.273ZM404.099 166.455H407.281V169.636H404.099V166.455ZM404.099 169.636H407.281V172.818H404.099V169.636ZM404.099 172.818H407.281V176H404.099V172.818ZM407.281 163.273H410.463V166.455H407.281V163.273ZM410.463 166.455H413.645V169.636H410.463V166.455ZM410.463 169.636H413.645V172.818H410.463V169.636ZM410.463 172.818H413.645V176H410.463V172.818ZM423.206 163.273H426.388V166.455H423.206V163.273ZM423.206 166.455H426.388V169.636H423.206V166.455ZM423.206 169.636H426.388V172.818H423.206V169.636ZM423.206 172.818H426.388V176H423.206V172.818ZM420.024 163.273H423.206V166.455H420.024V163.273ZM420.024 172.818H423.206V176H420.024V172.818ZM416.842 166.455H420.024V169.636H416.842V166.455ZM416.842 169.636H420.024V172.818H416.842V169.636ZM429.557 163.273H432.739V166.455H429.557V163.273ZM429.557 166.455H432.739V169.636H429.557V166.455ZM429.557 169.636H432.739V172.818H429.557V169.636ZM429.557 172.818H432.739V176H429.557V172.818ZM429.557 176H432.739V179.182H429.557V176ZM432.739 163.273H435.921V166.455H432.739V163.273ZM435.921 166.455H439.103V169.636H435.921V166.455ZM435.921 169.636H439.103V172.818H435.921V169.636ZM432.739 172.818H435.921V176H432.739V172.818Z" fill="url(#paint1_linear_28_11)"/>
</g>
<g filter="url(#filter2_d_28_11)">
<path d="M106.825 49.8C106.559 52.2667 106.625 54.7333 107.025 57.2C107.492 59.6 107.825 62.0333 108.025 64.5C108.425 68.5 108.859 72.5 109.325 76.5C109.792 80.5 110.259 84.5 110.725 88.5C111.125 92.0333 111.592 95.6 112.125 99.2C112.659 102.733 112.992 106.3 113.125 109.9C113.259 111.9 113.225 113.9 113.025 115.9C112.892 117.833 112.259 119.7 111.125 121.5C111.059 121.633 110.992 121.8 110.925 122C110.925 122.133 110.892 122.267 110.825 122.4C110.559 124.133 110.192 125.2 109.725 125.6C109.259 126.067 108.159 126.267 106.425 126.2C105.025 126.2 103.625 126.1 102.225 125.9C100.825 125.7 99.4254 125.433 98.0254 125.1C96.8921 124.767 95.6921 124.633 94.4254 124.7C93.1587 124.767 91.9254 124.767 90.7254 124.7C89.6587 124.633 88.5587 124.567 87.4254 124.5C86.3587 124.5 85.2921 124.367 84.2254 124.1C80.5587 123.3 78.5587 120.9 78.2254 116.9C78.0254 114.1 77.8587 111.3 77.7254 108.5C77.6587 105.7 77.6587 102.867 77.7254 100C77.7254 99.7333 77.7254 99.5 77.7254 99.3C77.7254 99.0333 77.6587 98.8 77.5254 98.6C77.3921 97.9333 77.1254 97.5667 76.7254 97.5C76.4587 97.4333 76.2254 97.5 76.0254 97.7C75.8921 97.9 75.7587 98.1 75.6254 98.3C75.0254 99.3 74.4921 100.333 74.0254 101.4C73.5587 102.467 73.0921 103.533 72.6254 104.6C72.5587 104.8 72.4921 105.033 72.4254 105.3C72.3587 105.5 72.2587 105.667 72.1254 105.8C71.6587 106.467 71.1254 107.133 70.5254 107.8C69.9921 108.467 69.2587 108.767 68.3254 108.7C67.5254 108.633 66.9587 108.267 66.6254 107.6C66.2921 106.933 65.9587 106.267 65.6254 105.6C65.3587 105.067 65.1254 104.533 64.9254 104C64.7921 103.4 64.6254 102.867 64.4254 102.4C64.2921 102.067 64.1254 101.7 63.9254 101.3C63.7921 100.9 63.4921 100.733 63.0254 100.8C62.5587 100.8 62.2254 101 62.0254 101.4C61.8921 101.733 61.7587 102.067 61.6254 102.4C60.9587 104.467 60.2587 106.533 59.5254 108.6C58.8587 110.667 58.3254 112.767 57.9254 114.9C57.5921 116.767 57.1921 118.633 56.7254 120.5C56.2587 122.367 55.7587 124.267 55.2254 126.2C54.9587 127.267 54.4254 127.967 53.6254 128.3C52.8921 128.633 52.0921 128.867 51.2254 129C49.9587 129.133 48.6254 129.2 47.2254 129.2C45.8921 129.267 44.5587 129.267 43.2254 129.2C42.0921 129.067 41.5587 128.433 41.6254 127.3C41.6921 126.967 41.6921 126.667 41.6254 126.4C41.6254 126.133 41.5921 125.867 41.5254 125.6C40.3921 122.2 39.8254 118.733 39.8254 115.2C39.8921 111.6 39.7587 108.033 39.4254 104.5C39.2921 102.7 39.2587 100.9 39.3254 99.1C39.4587 97.3 39.6254 95.4667 39.8254 93.6C40.3587 89.7333 40.4587 85.8667 40.1254 82C39.8587 78.0667 39.7587 74.1667 39.8254 70.3C39.8921 67.1667 39.9587 64.0667 40.0254 61C40.0921 57.9333 40.4254 54.8667 41.0254 51.8C41.2921 50.6 41.4254 49.4 41.4254 48.2C41.4254 46.9333 41.6587 45.7333 42.1254 44.6C42.5254 43.6 43.1921 43 44.1254 42.8C45.4587 42.6 46.7921 42.3667 48.1254 42.1C49.5254 41.7667 50.8587 41.4667 52.1254 41.2C52.8587 41 53.5254 40.9667 54.1254 41.1C54.7921 41.2333 55.4254 41.4667 56.0254 41.8C59.0921 43.5333 62.1254 45.3333 65.1254 47.2C68.1254 49.0667 71.0587 51 73.9254 53C75.5254 54.2 76.9254 53.9333 78.1254 52.2C79.1921 50.7333 80.2921 49.3333 81.4254 48C82.6254 46.6 83.8587 45.3 85.1254 44.1C85.5921 43.7 85.9921 43.4 86.3254 43.2C86.7254 42.9333 87.0254 43.3667 87.2254 44.5C87.3587 45.1667 87.6254 45.5 88.0254 45.5C88.4254 45.5 88.8587 45.5 89.3254 45.5C91.8587 45.4333 94.3254 45.2333 96.7254 44.9C99.1921 44.5667 101.659 44.3 104.125 44.1C105.592 43.9667 106.459 44.0333 106.725 44.3C107.059 44.5667 107.159 45.4667 107.025 47C107.025 47.4667 106.992 47.9333 106.925 48.4C106.925 48.8667 106.892 49.3333 106.825 49.8ZM47.2254 48.7C48.9587 48.7667 50.2921 48.6 51.2254 48.2C51.9587 47.8667 52.4921 47.2667 52.8254 46.4C53.2254 45.4667 53.2587 44.5333 52.9254 43.6C52.6587 42.7333 52.2254 42.3667 51.6254 42.5C51.0254 42.6333 50.4587 42.7333 49.9254 42.8C49.1254 42.9333 48.2921 43.1333 47.4254 43.4C46.6254 43.6 45.8254 43.8 45.0254 44C44.3587 44.0667 43.9587 44.3333 43.8254 44.8C43.6921 45.2 43.5921 45.6667 43.5254 46.2C43.5254 46.6667 43.5921 47.1 43.7254 47.5C43.9254 47.8333 44.2921 48.0667 44.8254 48.2C45.3587 48.2667 45.8254 48.3667 46.2254 48.5C46.6254 48.5667 46.9587 48.6333 47.2254 48.7ZM85.6254 49.1C85.6921 48.4333 85.7587 47.8333 85.8254 47.3C85.9587 46.7667 85.8254 46.4 85.4254 46.2C84.9587 46 84.5587 46.1 84.2254 46.5C83.8921 46.8333 83.5921 47.1667 83.3254 47.5C82.6587 48.2333 82.0254 49 81.4254 49.8C80.8921 50.6 80.3254 51.4 79.7254 52.2C78.6587 53.6667 77.5587 54.5 76.4254 54.7C75.3587 54.8333 74.0921 54.4 72.6254 53.4C70.1587 51.6667 67.6921 50 65.2254 48.4C62.8254 46.7333 60.2587 45.2667 57.5254 44C56.0587 43.2667 55.1587 43 54.8254 43.2C54.4921 43.3333 54.2254 44.3333 54.0254 46.2C53.9587 46.4667 53.8921 46.7667 53.8254 47.1C53.8254 47.3667 53.7587 47.6667 53.6254 48C53.2921 48.8 53.4587 49.6 54.1254 50.4C55.1921 51.4667 56.0921 52.6333 56.8254 53.9C57.6254 55.1 58.4587 56.3 59.3254 57.5C61.3254 60.1667 63.1587 62.9333 64.8254 65.8C66.4921 68.6667 68.3587 71.4 70.4254 74C71.2254 75 71.7587 75.5 72.0254 75.5C72.2921 75.5 72.7587 74.9667 73.4254 73.9C75.2254 71.1667 76.8921 68.3667 78.4254 65.5C79.9587 62.6333 81.5587 59.8333 83.2254 57.1C84.0254 55.7667 84.7587 54.4667 85.4254 53.2C86.0921 51.9333 86.1587 50.5667 85.6254 49.1ZM96.5254 112C96.1921 113.467 96.0254 114.9 96.0254 116.3C96.0921 117.7 96.1254 119.133 96.1254 120.6C96.1254 121.267 96.2587 121.767 96.5254 122.1C96.8587 122.5 97.2587 122.867 97.7254 123.2C99.3921 124.267 101.125 124.767 102.925 124.7C104.725 124.7 106.525 124.733 108.325 124.8C108.659 124.8 108.959 124.633 109.225 124.3C109.492 124.033 109.559 123.767 109.425 123.5C109.025 122.767 108.959 122.067 109.225 121.4C109.559 120.733 109.659 120.067 109.525 119.4C109.192 116.2 109.059 113 109.125 109.8C109.259 106.533 109.092 103.3 108.625 100.1C107.892 95.1667 107.359 90.2333 107.025 85.3C106.759 80.3 106.825 75.3 107.225 70.3C107.292 69.5667 107.325 68.8333 107.325 68.1C107.325 67.3 107.259 66.5333 107.125 65.8C106.792 62.6667 106.359 59.5333 105.825 56.4C105.292 53.2667 105.259 50.1 105.725 46.9C105.925 45.6333 105.325 45.0667 103.925 45.2C103.259 45.2667 102.559 45.3667 101.825 45.5C101.159 45.6333 100.459 45.7 99.7254 45.7C98.3254 45.7667 97.5921 46.5667 97.5254 48.1C97.4587 51.3667 97.3587 54.6667 97.2254 58C97.0921 61.3333 96.9587 64.6667 96.8254 68C96.7587 68.8667 96.6921 69.7667 96.6254 70.7C96.5587 71.6333 96.5587 72.5667 96.6254 73.5C97.0254 77.8333 97.2587 82.2 97.3254 86.6C97.3921 90.9333 97.2921 95.2667 97.0254 99.6C96.9587 101.667 96.8921 103.733 96.8254 105.8C96.7587 107.867 96.6587 109.933 96.5254 112ZM91.9254 53.6V53.5C92.1254 53.5 92.2921 53.5333 92.4254 53.6C92.6254 53.6 92.7921 53.5667 92.9254 53.5C93.4587 53.4333 94.0254 53.5 94.6254 53.7C95.2254 53.8333 95.6254 53.5333 95.8254 52.8C96.0921 51.8667 96.2254 50.9 96.2254 49.9C96.2921 48.8333 96.1921 47.7667 95.9254 46.7C95.8587 46.5 95.6921 46.4 95.4254 46.4C95.2254 46.4 95.0254 46.4 94.8254 46.4C93.7587 46.4667 92.6921 46.5333 91.6254 46.6C90.6254 46.6 89.5921 46.6 88.5254 46.6C87.8587 46.7333 87.3921 47.0667 87.1254 47.6C86.4587 49.2667 86.4587 50.6667 87.1254 51.8C87.7921 52.8667 88.9921 53.4333 90.7254 53.5C90.9254 53.5 91.1254 53.5 91.3254 53.5C91.5254 53.5 91.7254 53.5333 91.9254 53.6ZM89.2254 123.2V123.3C89.8921 123.3 90.5587 123.3 91.2254 123.3C91.9587 123.367 92.6587 123.433 93.3254 123.5C94.5254 123.5 95.0921 122.833 95.0254 121.5C94.9587 119.367 94.8921 117.267 94.8254 115.2C94.8254 113.067 94.9254 110.967 95.1254 108.9C95.5254 104.767 95.8254 100.667 96.0254 96.6C96.2254 92.5333 96.2254 88.4333 96.0254 84.3C95.9587 82.0333 95.8254 79.7667 95.6254 77.5C95.4254 75.2333 95.3921 72.9667 95.5254 70.7C95.6587 68.3667 95.6921 66.0333 95.6254 63.7C95.6254 61.3667 95.7254 59.0667 95.9254 56.8C95.9921 55.4667 95.3587 54.7333 94.0254 54.6C93.0254 54.5333 92.0254 54.5 91.0254 54.5C90.0254 54.4333 89.0587 54.3667 88.1254 54.3C86.9254 54.2333 85.9921 54.6667 85.3254 55.6C84.6587 56.4667 84.0587 57.4 83.5254 58.4C83.0587 59.4 82.5921 60.4 82.1254 61.4C80.9921 63.9333 79.6254 66.3667 78.0254 68.7C76.4921 70.9667 75.1921 73.4333 74.1254 76.1C73.8587 76.7667 73.3587 77.1333 72.6254 77.2C71.8921 77.2 71.2587 76.8667 70.7254 76.2C70.0587 75.2667 69.3921 74.3667 68.7254 73.5C68.0587 72.5667 67.4587 71.6 66.9254 70.6C64.9921 67.3333 62.9254 64.1667 60.7254 61.1C58.5254 58.0333 56.3587 54.9333 54.2254 51.8C53.8921 51.2667 53.4921 50.7333 53.0254 50.2C52.5587 49.6 51.9587 49.3667 51.2254 49.5C50.3587 49.5667 49.4921 49.6333 48.6254 49.7C47.8254 49.7 46.9921 49.6667 46.1254 49.6C44.9254 49.4667 44.2587 50.0667 44.1254 51.4C44.0587 52.2667 44.0254 53.1333 44.0254 54C44.0254 54.8667 43.9587 55.7333 43.8254 56.6C43.2921 60.2667 43.0921 63.9333 43.2254 67.6C43.4254 71.2 43.4587 74.8667 43.3254 78.6C43.1921 81.4667 43.1587 84.3333 43.2254 87.2C43.2921 90.0667 43.1921 92.9667 42.9254 95.9C42.7921 98.3667 42.5921 100.867 42.3254 103.4C42.1254 105.933 42.2587 108.467 42.7254 111C43.1921 113.533 43.5254 116.067 43.7254 118.6C43.9254 121.133 43.7921 123.667 43.3254 126.2C43.1921 127.267 43.5587 127.8 44.4254 127.8C45.6921 127.867 46.9254 127.9 48.1254 127.9C49.3254 127.967 50.5254 127.867 51.7254 127.6C53.1254 127.333 53.9587 126.5 54.2254 125.1C54.5587 123.967 54.8587 122.9 55.1254 121.9C55.4587 120.833 55.7587 119.733 56.0254 118.6C56.5587 116.133 57.0587 113.667 57.5254 111.2C57.9921 108.733 58.0254 106.233 57.6254 103.7C57.4921 102.767 57.4587 101.867 57.5254 101C57.6587 100.067 57.7921 99.1667 57.9254 98.3C57.9921 97.6333 58.3587 97.2 59.0254 97C60.9587 96.6 62.7587 96.9 64.4254 97.9C66.0921 98.9 67.2254 100.4 67.8254 102.4C67.8921 102.667 67.9587 102.933 68.0254 103.2C68.0921 103.467 68.1587 103.733 68.2254 104C68.3587 104.333 68.4587 104.733 68.5254 105.2C68.6587 105.6 68.9587 105.8 69.4254 105.8C69.8254 105.8 70.1587 105.667 70.4254 105.4C70.6921 105.133 70.9254 104.833 71.1254 104.5C71.3921 104.167 71.5921 103.8 71.7254 103.4C71.9254 103 72.0921 102.6 72.2254 102.2C72.5587 101.333 72.9254 100.5 73.3254 99.7C73.7921 98.8333 74.2921 98.0333 74.8254 97.3C75.1587 96.9 75.5254 96.5 75.9254 96.1C76.3921 95.6333 76.9254 95.4667 77.5254 95.6C78.0587 95.7333 78.3587 96.0667 78.4254 96.6C78.5587 97.1333 78.6921 97.6333 78.8254 98.1C78.9587 98.4333 79.0254 98.8 79.0254 99.2C79.0254 99.6 79.0254 100 79.0254 100.4C79.0254 103.267 79.0254 106.1 79.0254 108.9C79.0921 111.7 79.2587 114.5 79.5254 117.3C79.7254 119.167 80.2254 120.533 81.0254 121.4C81.8921 122.267 83.1921 122.8 84.9254 123C85.6587 123.067 86.3921 123.1 87.1254 123.1C87.8587 123.167 88.5587 123.2 89.2254 123.2ZM40.9254 104.2C41.0587 103.2 41.1921 101.333 41.3254 98.6C41.4587 95.8 41.5921 92.5333 41.7254 88.8C41.8587 85.0667 41.9587 81.2 42.0254 77.2C42.1587 73.1333 42.2254 69.3333 42.2254 65.8C42.2921 62.2667 42.3254 59.3333 42.3254 57C42.3254 54.6667 42.2587 53.3667 42.1254 53.1C41.4587 56.7 41.0921 60.3 41.0254 63.9C40.9587 67.5 40.9587 71.0667 41.0254 74.6C41.1587 78.2 41.2921 81.8333 41.4254 85.5C41.5587 89.1 41.3587 92.7 40.8254 96.3C40.4254 98.8333 40.4587 101.467 40.9254 104.2ZM110.925 118.3C111.592 116.7 111.925 115.233 111.925 113.9C112.059 111.767 112.059 109.6 111.925 107.4C111.792 105.2 111.625 103.033 111.425 100.9C111.159 97.7667 110.692 94.6667 110.025 91.6C109.359 88.4667 109.025 85.3 109.025 82.1C109.025 81.5667 108.959 81.0667 108.825 80.6C108.759 80.0667 108.692 79.5333 108.625 79C108.559 79.2667 108.525 80.3667 108.525 82.3C108.592 84.1667 108.692 86.5333 108.825 89.4C108.959 92.2 109.125 95.1667 109.325 98.3C109.525 101.433 109.725 104.433 109.925 107.3C110.125 110.167 110.325 112.6 110.525 114.6C110.725 116.6 110.859 117.833 110.925 118.3ZM186.825 112.7C186.759 114.1 186.692 115.433 186.625 116.7C186.559 117.9 186.459 119.133 186.325 120.4C186.059 122.667 185.359 124.4 184.225 125.6C183.092 126.8 181.359 127.3 179.025 127.1C176.959 126.9 175.025 127.033 173.225 127.5C171.492 128.033 169.759 128.633 168.025 129.3C165.759 130.167 163.459 130.667 161.125 130.8C158.792 130.933 156.425 130.667 154.025 130C151.292 129.267 149.259 127.6 147.925 125C145.992 120.8 144.825 116.467 144.425 112C144.159 108.667 143.759 105.333 143.225 102C142.692 98.6667 142.392 95.3 142.325 91.9C142.259 89.3667 142.325 86.8667 142.525 84.4C142.725 81.8667 143.292 79.4333 144.225 77.1C145.159 74.7667 146.659 72.6 148.725 70.6C149.859 69.5333 151.259 68.7667 152.925 68.3C154.659 67.7667 156.459 67.5667 158.325 67.7C160.192 67.8333 161.892 68.3667 163.425 69.3C165.025 70.2333 166.259 71.6333 167.125 73.5C167.859 75.1667 168.592 76.8 169.325 78.4C170.059 80 170.592 81.6667 170.925 83.4C171.459 85.4667 171.359 87 170.625 88C169.959 89 168.559 89.6 166.425 89.8C165.225 89.9333 164.025 90.0333 162.825 90.1C161.625 90.1667 160.392 90.2 159.125 90.2C158.259 90.2 157.725 90.4 157.525 90.8C157.325 91.1333 157.359 91.7 157.625 92.5C158.625 95.4333 159.625 98.4 160.625 101.4C161.625 104.333 162.625 107.267 163.625 110.2C163.959 111.067 164.325 111.5 164.725 111.5C165.125 111.5 165.625 111.2 166.225 110.6C168.025 108.867 169.459 106.933 170.525 104.8C171.592 102.6 172.525 100.367 173.325 98.1C173.925 96.3667 174.859 95.3667 176.125 95.1C177.459 94.8333 178.725 95.3667 179.925 96.7C179.992 96.7667 180.025 96.8333 180.025 96.9C180.025 96.9 180.059 96.9333 180.125 97C182.125 97.7333 183.559 98.7 184.425 99.9C185.292 101.1 185.825 102.433 186.025 103.9C186.292 105.367 186.425 106.867 186.425 108.4C186.425 109.867 186.559 111.3 186.825 112.7ZM158.725 88.9V89.1C160.125 88.9667 161.525 88.8667 162.925 88.8C164.392 88.6667 165.825 88.5667 167.225 88.5C169.225 88.3 170.125 87.1333 169.925 85C169.659 82.9333 169.159 80.9667 168.425 79.1C167.759 77.1667 166.859 75.3333 165.725 73.6C164.659 71.8 163.192 70.5 161.325 69.7C159.459 68.8333 157.525 68.5 155.525 68.7C153.525 68.9 151.759 69.7 150.225 71.1C146.825 74.1667 144.892 77.9333 144.425 82.4C144.159 85.0667 143.959 87.8 143.825 90.6C143.759 93.3333 143.959 96.0667 144.425 98.8C145.092 102.333 145.559 105.933 145.825 109.6C146.092 113.2 146.659 116.767 147.525 120.3C148.259 123.167 149.492 125.333 151.225 126.8C152.959 128.333 155.325 129.233 158.325 129.5C160.725 129.633 163.025 129.4 165.225 128.8C167.425 128.2 169.625 127.5 171.825 126.7C175.092 125.5 176.859 123.267 177.125 120C177.392 116.467 177.625 112.9 177.825 109.3C178.092 105.7 178.325 102.133 178.525 98.6C178.592 98.2 178.625 97.7667 178.625 97.3C178.692 96.8333 178.425 96.5333 177.825 96.4C177.359 96.2667 176.859 96.3333 176.325 96.6C175.859 96.8 175.492 97.1667 175.225 97.7C174.959 98.3667 174.692 99.0667 174.425 99.8C174.159 100.467 173.925 101.133 173.725 101.8C172.259 105.933 170.025 109.367 167.025 112.1C165.225 113.767 163.192 114.7 160.925 114.9C158.659 115.1 156.592 114.633 154.725 113.5C152.859 112.3 151.559 110.567 150.825 108.3C150.225 106.3 149.792 104.267 149.525 102.2C149.259 100.067 149.192 97.9333 149.325 95.8C149.459 93.6 149.659 92 149.925 91C150.259 90 150.925 89.3667 151.925 89.1C152.992 88.8333 154.625 88.7667 156.825 88.9H158.725ZM157.525 74.3H161.325C162.259 74.3 163.125 74.4333 163.925 74.7C164.725 74.9 165.059 75.6667 164.925 77C164.859 78.1333 164.659 79.2 164.325 80.2C163.992 81.2 162.992 81.7667 161.325 81.9C159.725 81.9667 158.125 81.9333 156.525 81.8C154.992 81.6 153.459 81.4333 151.925 81.3C151.192 81.2333 150.525 81.0667 149.925 80.8C149.392 80.4667 149.159 79.8667 149.225 79C149.359 78.0667 149.459 77.1 149.525 76.1C149.659 75.1 150.425 74.5333 151.825 74.4C152.759 74.2667 153.692 74.2333 154.625 74.3C155.625 74.3667 156.592 74.4 157.525 74.4V74.3ZM150.825 77.2C152.625 77.6667 154.392 77.9667 156.125 78.1C157.925 78.2333 159.692 78.2333 161.425 78.1C161.892 78.1 162.325 78.0333 162.725 77.9C163.192 77.7667 163.425 77.3667 163.425 76.7C163.492 75.9667 163.292 75.5667 162.825 75.5C162.359 75.4333 161.892 75.4 161.425 75.4C160.225 75.3333 159.025 75.3 157.825 75.3C156.625 75.2333 155.392 75.2 154.125 75.2C153.525 75.2 152.925 75.3333 152.325 75.6C151.725 75.8 151.225 76.3333 150.825 77.2ZM162.525 80.6V79.6C160.592 79.4667 158.659 79.3333 156.725 79.2C154.792 79.0667 152.859 78.9333 150.925 78.8V80C152.859 80.3333 154.792 80.6 156.725 80.8C158.659 81 160.592 80.9333 162.525 80.6ZM150.825 98.1C150.759 99.7667 150.825 101.367 151.025 102.9C151.292 104.433 151.625 105.967 152.025 107.5C152.559 109.567 153.625 111.133 155.225 112.2C156.825 113.267 158.659 113.733 160.725 113.6C162.325 113.533 162.892 112.733 162.425 111.2C161.425 107.867 160.359 104.567 159.225 101.3C158.159 98.0333 156.925 94.8333 155.525 91.7C155.325 91.1667 155.092 90.7667 154.825 90.5C154.559 90.2333 154.125 90.1333 153.525 90.2C152.459 90.2667 151.825 90.8667 151.625 92C151.359 93 151.125 94.0333 150.925 95.1C150.792 96.1 150.759 97.1 150.825 98.1ZM185.625 113.6C185.625 112.4 185.492 110.9 185.225 109.1C185.025 107.3 184.759 105.6 184.425 104C184.092 102.4 183.759 101.3 183.425 100.7C183.159 100.233 182.892 99.8333 182.625 99.5C182.359 99.1 181.925 98.9667 181.325 99.1C180.725 99.1667 180.359 99.4333 180.225 99.9C180.092 100.3 180.025 100.767 180.025 101.3C179.892 102.767 179.759 104.267 179.625 105.8C179.492 107.333 179.392 108.867 179.325 110.4C179.259 112.333 179.159 114.267 179.025 116.2C178.959 118.133 178.659 120.067 178.125 122C177.659 124.067 177.625 125.3 178.025 125.7C178.425 126.1 179.725 126.067 181.925 125.6C183.059 125.4 183.792 124.967 184.125 124.3C184.459 123.633 184.659 122.867 184.725 122C184.925 120.667 185.092 119.3 185.225 117.9C185.359 116.5 185.492 115.067 185.625 113.6ZM218.494 74.3C219.427 72.1667 220.594 70.5 221.994 69.3C223.461 68.0333 224.927 66.8667 226.394 65.8C226.861 65.4667 227.327 65.2 227.794 65C228.261 64.8 228.761 64.7 229.294 64.7C229.961 64.7 230.461 64.9 230.794 65.3C231.127 65.6333 231.261 66.2667 231.194 67.2C231.127 68.7333 231.627 69.3667 232.694 69.1C233.627 68.8333 234.194 68.8667 234.394 69.2C234.661 69.4667 234.861 70.2333 234.994 71.5C235.127 72.8333 235.261 74.1667 235.394 75.5C235.527 76.7667 235.694 78.0667 235.894 79.4C236.094 80.8 235.727 81.2333 234.794 80.7C233.794 80.1667 232.827 79.9667 231.894 80.1C231.027 80.1667 230.127 80.2667 229.194 80.4C228.194 80.5333 227.727 81.3 227.794 82.7C228.061 87.1667 228.327 91.6333 228.594 96.1C228.927 100.5 229.327 104.933 229.794 109.4C229.861 110.067 229.961 110.733 230.094 111.4C230.227 112 230.327 112.633 230.394 113.3C230.527 113.9 230.594 114.467 230.594 115C230.594 115.533 230.261 115.867 229.594 116C229.194 116.133 229.061 116.6 229.194 117.4C229.527 118.933 229.694 120.467 229.694 122C229.761 123.6 229.894 125.167 230.094 126.7C230.294 128.233 229.861 129.167 228.794 129.5C228.461 129.567 228.094 129.667 227.694 129.8C227.361 130 227.027 130.233 226.694 130.5C225.627 131.367 224.461 131.7 223.194 131.5C221.994 131.3 220.761 130.933 219.494 130.4C218.761 130 217.994 129.8 217.194 129.8C216.394 129.8 215.627 129.767 214.894 129.7C213.627 129.567 212.694 129.1 212.094 128.3C211.561 127.567 211.261 126.367 211.194 124.7C211.194 120.9 211.094 117.1 210.894 113.3C210.761 109.433 210.561 105.567 210.294 101.7C210.161 99.8333 210.094 97.9667 210.094 96.1C210.094 94.1667 210.027 92.2667 209.894 90.4C209.827 89.2667 209.661 88.6 209.394 88.4C209.194 88.2 208.694 88.2333 207.894 88.5C206.427 88.9667 205.594 89.0667 205.394 88.8C205.261 88.5333 205.027 87.3667 204.694 85.3C204.427 83.0333 204.494 81.1667 204.894 79.7C205.294 78.1667 206.461 77.3667 208.394 77.3C209.594 77.1667 210.161 76.1333 210.094 74.2C210.027 73.0667 210.094 72 210.294 71C210.494 69.9333 211.194 69.3333 212.394 69.2C213.061 69.0667 213.694 68.8 214.294 68.4C214.894 67.9333 215.527 67.5667 216.194 67.3C217.527 66.7 218.027 67.3 217.694 69.1C217.561 69.9667 217.561 70.8333 217.694 71.7C217.894 72.5 218.161 73.3667 218.494 74.3ZM219.994 74.9C221.727 74.1667 223.394 73.4667 224.994 72.8C226.594 72.0667 228.161 71.2667 229.694 70.4C230.227 70.1333 230.461 69.5667 230.394 68.7C230.327 67.8333 230.194 67.0667 229.994 66.4C229.794 65.8 229.494 65.6 229.094 65.8C228.694 65.9333 228.327 66.0667 227.994 66.2C226.727 66.9333 225.494 67.7667 224.294 68.7C223.094 69.6333 221.994 70.7333 220.994 72C220.794 72.2667 220.594 72.6333 220.394 73.1C220.261 73.5 220.127 74.1 219.994 74.9ZM213.794 72.1C214.327 71.9667 214.894 71.8333 215.494 71.7C216.161 71.5 216.527 70.8667 216.594 69.8C216.727 68.6 216.427 68.1667 215.694 68.5C215.094 68.7667 214.494 69.0333 213.894 69.3C213.361 69.5667 212.827 69.8333 212.294 70.1C212.027 70.3 211.794 70.5667 211.594 70.9C211.394 71.2333 211.361 71.6333 211.494 72.1C211.627 72.5667 211.827 72.7333 212.094 72.6C212.361 72.4 212.627 72.3 212.894 72.3C213.027 72.3667 213.161 72.3667 213.294 72.3C213.427 72.2333 213.594 72.1667 213.794 72.1ZM233.994 71.7C233.861 70.7667 233.527 70.3333 232.994 70.4C232.594 70.4667 232.227 70.6 231.894 70.8C231.627 70.9333 231.494 71.3 231.494 71.9C231.494 72.5667 231.527 73.2333 231.594 73.9C231.661 74.5 231.694 75.1333 231.694 75.8C231.694 77.3333 231.794 78.2667 231.994 78.6C232.194 78.9333 232.861 79.1667 233.994 79.3C234.661 79.5 234.961 79.1667 234.894 78.3C234.761 77.1667 234.594 76.0667 234.394 75C234.261 73.8667 234.127 72.7667 233.994 71.7ZM213.894 73.2C213.627 73.2667 213.327 73.3333 212.994 73.4C212.727 73.4667 212.427 73.5667 212.094 73.7C211.361 73.8333 211.027 74.3 211.094 75.1C211.227 76.1667 211.061 76.9333 210.594 77.4C210.194 77.8667 209.694 78.1667 209.094 78.3C207.427 78.4333 206.361 79.1 205.894 80.3C205.427 81.5 205.327 83.1667 205.594 85.3C205.794 86.5667 205.961 87.3333 206.094 87.6C206.227 87.8 206.727 87.7667 207.594 87.5C209.127 87.0333 210.027 86.9667 210.294 87.3C210.627 87.5667 210.827 88.8 210.894 91V91.9C210.827 97.4333 210.994 103 211.394 108.6C211.861 114.2 212.161 119.767 212.294 125.3C212.294 126.5 212.461 127.267 212.794 127.6C213.127 128 213.727 128.267 214.594 128.4C215.527 128.467 216.461 128.6 217.394 128.8C218.394 129.067 219.361 129.433 220.294 129.9C221.761 130.567 222.761 130.633 223.294 130.1C223.894 129.567 224.227 128.367 224.294 126.5C224.361 124.5 224.261 122.533 223.994 120.6C223.794 118.6 223.694 116.6 223.694 114.6C223.761 109.267 224.061 104.033 224.594 98.9C225.194 93.7667 225.727 88.6333 226.194 83.5C226.327 82.1667 226.594 81.1333 226.994 80.4C227.394 79.6667 228.127 79.2667 229.194 79.2C230.061 79.0667 230.527 78.5333 230.594 77.6V73.8C230.594 72.3333 230.094 71.8 229.094 72.2C227.427 72.9333 225.794 73.6667 224.194 74.4C222.594 75.1333 220.994 75.9 219.394 76.7C218.661 77.0333 218.161 77.1333 217.894 77C217.694 76.8667 217.527 76.2333 217.394 75.1C217.261 73.9667 216.994 73.2667 216.594 73C216.261 72.6667 215.727 72.6667 214.994 73C214.794 73.0667 214.594 73.1 214.394 73.1C214.261 73.1 214.094 73.1333 213.894 73.2ZM227.094 87.8C226.494 91.6 225.961 95.4333 225.494 99.3C225.027 103.1 224.761 106.967 224.694 110.9C224.694 111.567 224.627 112.3 224.494 113.1C224.361 113.833 224.494 114.467 224.894 115C225.227 115.6 225.661 115.733 226.194 115.4C226.794 115.067 227.327 114.933 227.794 115C227.927 115 228.061 115 228.194 115C228.327 114.933 228.461 114.933 228.594 115C229.527 115 229.861 114.367 229.594 113.1C229.127 110.367 228.761 107.667 228.494 105C228.294 102.267 228.061 99.5667 227.794 96.9C227.661 95.3667 227.527 93.8333 227.394 92.3C227.327 90.7667 227.227 89.2667 227.094 87.8ZM228.594 117.9C228.394 116.767 227.894 116.3 227.094 116.5C226.627 116.7 226.094 116.833 225.494 116.9C224.894 116.9 224.627 117.5 224.694 118.7C224.894 120.767 224.994 122.867 224.994 125C225.061 127.4 225.227 128.733 225.494 129C225.761 129.267 226.694 128.967 228.294 128.1C228.561 127.967 228.794 127.833 228.994 127.7C229.194 127.567 229.294 127.267 229.294 126.8C229.227 125.267 229.127 123.767 228.994 122.3C228.861 120.833 228.727 119.367 228.594 117.9ZM306.494 103.4C306.361 105.8 306.227 108.133 306.094 110.4C306.027 112.667 305.927 114.933 305.794 117.2C305.727 117.933 305.561 118.667 305.294 119.4C305.094 120.067 304.627 120.633 303.894 121.1C301.027 122.633 298.094 123.933 295.094 125C292.094 126.133 288.894 126.3 285.494 125.5C283.627 125.1 282.161 125.5 281.094 126.7C280.427 127.367 279.661 127.9 278.794 128.3C277.994 128.767 277.127 129.167 276.194 129.5C272.927 130.567 270.661 129.467 269.394 126.2C267.927 122.267 267.661 118.567 268.594 115.1C269.594 111.567 271.561 108.733 274.494 106.6C277.427 104.4 280.994 103.333 285.194 103.4C285.927 103.4 286.527 103.333 286.994 103.2C287.527 103 287.794 102.467 287.794 101.6C287.861 100.733 287.627 100.1 287.094 99.7C286.627 99.2333 285.994 98.9667 285.194 98.9C282.127 98.6333 279.094 98.6333 276.094 98.9C273.094 99.1 270.227 100.133 267.494 102C266.361 102.867 265.427 103.167 264.694 102.9C263.961 102.567 263.261 101.967 262.594 101.1C260.194 97.5667 258.627 93.9 257.894 90.1C257.227 86.2333 257.294 82.2667 258.094 78.2C258.627 75.3333 259.861 73.1667 261.794 71.7C263.794 70.2333 266.227 69.4333 269.094 69.3C270.427 69.2333 271.761 69.2333 273.094 69.3C274.427 69.3 275.727 69.4333 276.994 69.7C278.927 70.1 280.827 70.3333 282.694 70.4C284.561 70.4667 286.494 69.9667 288.494 68.9C290.227 68.0333 292.027 67.8667 293.894 68.4C295.827 68.8667 297.561 69.8667 299.094 71.4C300.694 72.8667 301.827 74.6667 302.494 76.8C303.961 81.1333 304.927 85.5667 305.394 90.1C305.927 94.5667 306.294 99 306.494 103.4ZM304.794 102.8C304.661 101.267 304.527 99.6 304.394 97.8C304.327 96 304.194 94.1667 303.994 92.3C303.727 89.5667 303.327 86.8333 302.794 84.1C302.261 81.3667 301.427 78.7667 300.294 76.3C299.427 74.2333 298.061 72.6 296.194 71.4C294.327 70.1333 292.494 69.5667 290.694 69.7C289.961 69.7667 289.194 69.9 288.394 70.1C287.661 70.2333 287.161 70.7333 286.894 71.6C286.627 72.2667 286.794 72.8 287.394 73.2C288.061 73.5333 288.627 73.9 289.094 74.3C292.161 76.8333 294.561 79.7 296.294 82.9C298.027 86.0333 299.061 89.6667 299.394 93.8C299.727 97.8667 299.727 101.933 299.394 106C299.127 110 298.761 114.033 298.294 118.1C298.227 118.567 298.161 119.133 298.094 119.8C298.094 120.4 298.394 120.867 298.994 121.2C299.594 121.467 300.161 121.433 300.694 121.1C301.294 120.7 301.861 120.367 302.394 120.1C302.994 119.767 303.394 119.333 303.594 118.8C303.861 118.2 303.994 117.567 303.994 116.9C304.127 114.633 304.261 112.367 304.394 110.1C304.527 107.833 304.661 105.4 304.794 102.8ZM264.394 100.2C266.461 94.4667 269.327 90.6333 272.994 88.7C276.661 86.7 281.027 86.6333 286.094 88.5C288.494 89.3667 290.194 90.8667 291.194 93C292.194 95.0667 292.227 97.2667 291.294 99.6C290.827 100.733 290.327 101.867 289.794 103C289.261 104.067 288.694 105.167 288.094 106.3C287.027 108.233 286.194 110.233 285.594 112.3C284.994 114.367 284.694 116.533 284.694 118.8C284.694 120.067 284.794 121.267 284.994 122.4C285.261 123.533 286.227 124.233 287.894 124.5C290.161 124.833 292.061 124.567 293.594 123.7C295.194 122.833 296.094 121.533 296.294 119.8C296.627 116.467 297.061 113.133 297.594 109.8C298.127 106.467 298.261 103.1 297.994 99.7C297.794 97.2333 297.561 94.8 297.294 92.4C297.027 89.9333 296.461 87.5667 295.594 85.3C294.794 83.0333 293.427 80.8667 291.494 78.8C288.627 75.7333 285.427 73.6333 281.894 72.5C278.427 71.3667 274.761 70.7667 270.894 70.7C267.094 70.5667 264.194 71.6 262.194 73.8C260.261 75.9333 259.261 78.9 259.194 82.7C259.127 85.9 259.494 89.1 260.294 92.3C260.694 93.7 261.161 95.1 261.694 96.5C262.294 97.8333 263.194 99.0667 264.394 100.2ZM279.694 89C276.427 89 273.827 89.5667 271.894 90.7C270.027 91.8333 268.594 93.7 267.594 96.3C267.394 96.7667 267.194 97.2667 266.994 97.8C266.794 98.2667 266.894 98.7 267.294 99.1C267.694 99.5667 268.127 99.7 268.594 99.5C269.127 99.2333 269.627 99.0333 270.094 98.9C273.027 97.9 275.961 97.3 278.894 97.1C281.894 96.8333 284.927 97.0333 287.994 97.7C289.127 97.9667 289.794 97.8667 289.994 97.4C290.194 96.9333 290.194 96.2667 289.994 95.4C289.527 93.1333 288.461 91.5 286.794 90.5C285.194 89.5 282.827 89 279.694 89ZM270.494 119.6C270.561 120.6 270.561 121.6 270.494 122.6C270.494 123.6 270.727 124.6 271.194 125.6C271.594 126.467 272.094 127.167 272.694 127.7C273.294 128.233 274.127 128.4 275.194 128.2C276.327 128 277.427 127.467 278.494 126.6C279.561 125.8 280.461 124.8 281.194 123.6C281.927 122.467 282.327 121.367 282.394 120.3C282.661 118.3 282.961 116.333 283.294 114.4C283.627 112.4 284.161 110.467 284.894 108.6C285.161 108.067 285.427 107.567 285.694 107.1C286.027 106.567 285.927 106.033 285.394 105.5C284.927 104.967 284.361 104.767 283.694 104.9C283.094 104.967 282.494 105.067 281.894 105.2C274.227 106.667 270.427 111.467 270.494 119.6ZM338.418 65.3C338.951 65.2333 339.384 65.2 339.718 65.2C340.118 65.2 340.484 65.1667 340.818 65.1C341.751 64.9667 342.251 65.4667 342.318 66.6C342.651 68.2667 343.151 69.9 343.818 71.5C344.484 73.0333 345.084 74.5667 345.618 76.1C345.951 76.9 346.251 77.2667 346.518 77.2C346.851 77.0667 347.184 76.7333 347.518 76.2C348.251 74.9333 349.018 73.7 349.818 72.5C350.684 71.2333 351.451 69.9667 352.118 68.7C353.784 65.7667 355.818 63.8 358.218 62.8C360.618 61.7333 363.118 60.9667 365.718 60.5C367.384 60.1667 368.384 60.1667 368.718 60.5C369.118 60.8333 369.451 62.0333 369.718 64.1C369.784 64.2333 369.818 64.4667 369.818 64.8C370.751 67.8667 370.951 70.7667 370.418 73.5C369.884 76.1667 368.851 78.7667 367.318 81.3C366.851 82.1 366.618 82.9 366.618 83.7C366.684 84.5 366.918 85.3667 367.318 86.3C369.251 90.8333 371.251 95.3333 373.318 99.8C375.451 104.267 377.684 108.667 380.018 113C380.884 114.6 380.884 116.133 380.018 117.6C379.484 118.667 378.918 119.733 378.318 120.8C377.718 121.8 377.284 122.933 377.018 124.2C376.951 124.733 376.751 125.033 376.418 125.1C376.084 125.167 375.751 125.2 375.418 125.2C373.751 125.2 372.084 125.267 370.418 125.4C368.818 125.533 367.184 125.867 365.518 126.4C365.051 126.533 364.684 126.433 364.418 126.1C364.151 125.833 363.951 125.433 363.818 124.9C363.284 121.767 362.718 118.633 362.118 115.5C361.518 112.3 360.918 109.1 360.318 105.9C360.118 104.9 359.918 103.9 359.718 102.9C359.584 101.9 359.418 100.9 359.218 99.9C359.018 98.9667 358.651 98.4 358.118 98.2C357.651 98 357.118 98.2333 356.518 98.9C355.384 100.367 354.218 101.867 353.018 103.4C351.884 104.867 350.718 106.333 349.518 107.8C349.051 108.333 348.818 108.9 348.818 109.5C348.818 110.033 348.918 110.6 349.118 111.2C349.851 113.533 350.451 115.9 350.918 118.3C351.384 120.7 351.918 123.067 352.518 125.4C352.651 126.067 352.651 126.633 352.518 127.1C352.451 127.567 352.051 127.8 351.318 127.8C349.451 127.8 347.551 128.1 345.618 128.7C343.751 129.3 341.851 129.6 339.918 129.6C339.651 129.6 339.318 129.633 338.918 129.7C338.584 129.767 338.251 129.8 337.918 129.8C336.584 129.867 335.784 129.667 335.518 129.2C335.251 128.8 335.151 127.767 335.218 126.1C335.551 120.967 335.718 115.8 335.718 110.6C335.718 105.333 335.484 100.1 335.018 94.9C334.751 91.6333 334.484 88.4 334.218 85.2C333.951 81.9333 333.651 78.6667 333.318 75.4C333.184 73.8667 333.318 72.3333 333.718 70.8C334.184 69.2667 334.651 67.8 335.118 66.4C335.451 65.4667 335.951 65.1 336.618 65.3C337.351 65.4333 337.951 65.4333 338.418 65.3ZM364.018 73.2V73.3H368.118C368.518 73.3 368.851 73.2333 369.118 73.1C369.451 72.9 369.551 72.4667 369.418 71.8C369.284 70.4 369.118 69 368.918 67.6C368.784 66.1333 368.618 64.7 368.418 63.3C368.351 62.9 368.218 62.5333 368.018 62.2C367.884 61.8667 367.618 61.6667 367.218 61.6C365.951 61.4 364.718 61.5333 363.518 62C362.318 62.4667 361.151 63 360.018 63.6C359.284 64 358.884 64.7 358.818 65.7C358.818 66.7 358.751 67.6333 358.618 68.5C358.484 70.0333 358.418 71.1333 358.418 71.8C358.484 72.4667 358.784 72.8667 359.318 73C359.918 73.1333 360.884 73.2 362.218 73.2H364.018ZM357.818 64.5C357.218 64.6333 356.718 64.9333 356.318 65.4C355.918 65.8 355.551 66.2333 355.218 66.7C353.884 68.3667 352.651 70.2 351.518 72.2C350.451 74.2 349.318 76.1333 348.118 78C347.784 78.4667 347.651 79 347.718 79.6C347.784 80.2 347.851 80.7667 347.918 81.3C347.984 81.5667 348.018 81.8667 348.018 82.2C348.084 82.4667 348.251 82.6667 348.518 82.8C348.718 82.8667 348.884 82.8 349.018 82.6C349.218 82.4 349.384 82.2 349.518 82C351.518 79.4 353.618 77 355.818 74.8C356.151 74.4 356.418 74 356.618 73.6C356.884 73.1333 357.051 72.6333 357.118 72.1C357.251 70.8333 357.384 69.6 357.518 68.4C357.651 67.1333 357.751 65.8333 357.818 64.5ZM336.418 73.7C337.151 73.7 337.851 73.3667 338.518 72.7C339.184 71.9667 339.718 71.1333 340.118 70.2C340.518 69.2 340.618 68.2667 340.418 67.4C340.418 66.9333 340.218 66.6667 339.818 66.6C338.951 66.0667 338.051 66.0667 337.118 66.6C336.251 67.1333 335.651 67.9667 335.318 69.1C335.251 69.4333 335.184 69.7667 335.118 70.1C335.118 70.3667 335.051 70.6667 334.918 71C334.384 73 334.884 73.9 336.418 73.7ZM340.318 73.5C340.384 73.7 340.418 73.9 340.418 74.1C340.418 74.2333 340.451 74.3667 340.518 74.5C341.318 76.3 342.084 78.1333 342.818 80C343.551 81.8667 344.384 83.6333 345.318 85.3C345.451 85.5667 345.618 85.8667 345.818 86.2C346.018 86.4667 346.284 86.4667 346.618 86.2C346.951 86 347.084 85.7333 347.018 85.4C346.951 85 346.884 84.6667 346.818 84.4C346.484 82.0667 345.851 79.9 344.918 77.9C343.984 75.8333 343.151 73.7667 342.418 71.7C342.351 71.4333 342.251 71.1667 342.118 70.9C342.051 70.6333 341.851 70.5 341.518 70.5C341.251 70.5667 341.084 70.7667 341.018 71.1C340.951 71.3667 340.851 71.6333 340.718 71.9C340.651 72.1667 340.584 72.4333 340.518 72.7C340.451 72.9667 340.384 73.2333 340.318 73.5ZM338.618 128.7C339.084 128.567 339.518 128.467 339.918 128.4C340.384 128.333 340.818 128.3 341.218 128.3C342.951 128.367 343.718 127.333 343.518 125.2C343.451 124.267 343.418 123.3 343.418 122.3C343.418 121.3 343.284 120.333 343.018 119.4C342.418 117.267 342.318 115.433 342.718 113.9C343.118 112.3 344.151 110.867 345.818 109.6C347.751 108.067 349.451 106.3 350.918 104.3C352.451 102.3 353.951 100.3 355.418 98.3C356.018 97.5 356.651 97.0667 357.318 97C357.984 96.8667 358.651 96.8333 359.318 96.9C360.051 96.9667 360.384 97.3333 360.318 98C360.318 98.6 360.351 99.1667 360.418 99.7C361.151 103.5 361.851 107.3 362.518 111.1C363.251 114.833 363.951 118.567 364.618 122.3C364.884 124.1 365.751 124.867 367.218 124.6C368.284 124.467 369.318 124.3 370.318 124.1C371.384 123.967 372.451 123.867 373.518 123.8C374.184 123.667 374.551 123.433 374.618 123.1C374.751 122.767 374.718 122.267 374.518 121.6C372.918 116.267 371.051 111.1 368.918 106.1C366.851 101.033 364.784 96 362.718 91C362.184 89.8 362.184 88.7333 362.718 87.8C363.851 86.1333 364.751 84.3667 365.418 82.5C366.151 80.5667 366.951 78.7 367.818 76.9C368.618 75.3 368.218 74.5 366.618 74.5C365.551 74.4333 364.451 74.4333 363.318 74.5C362.184 74.5 361.051 74.4667 359.918 74.4C359.051 74.3333 358.251 74.5333 357.518 75C356.851 75.4667 356.184 76.0667 355.518 76.8C353.051 79.4 350.851 82.2667 348.918 85.4C347.051 88.5333 345.284 91.8 343.618 95.2C343.418 95.6 343.218 96.0667 343.018 96.6C342.818 97.1333 342.451 97.3333 341.918 97.2C341.451 97.0667 341.184 96.7 341.118 96.1C341.118 95.5 341.084 94.9333 341.018 94.4C340.618 91.6 340.218 88.8 339.818 86C339.484 83.2 339.151 80.4 338.818 77.6C338.618 75.5333 337.684 74.6333 336.018 74.9C335.151 75.1 334.718 75.5333 334.718 76.2C334.784 76.8667 334.851 77.5333 334.918 78.2C335.651 86.0667 336.184 93.9667 336.518 101.9C336.918 109.833 336.851 117.767 336.318 125.7C336.118 127.967 336.884 128.967 338.618 128.7ZM340.318 78C340.318 78 340.184 78.0667 339.918 78.2C340.251 80.6667 340.584 83.1 340.918 85.5C341.251 87.9 341.584 90.3 341.918 92.7C341.984 92.9667 342.018 93.3 342.018 93.7C342.084 94.0333 342.351 94.1 342.818 93.9C343.151 93.7667 343.484 93.2333 343.818 92.3C344.218 91.3 344.518 90.3 344.718 89.3C344.984 88.2333 345.018 87.5333 344.818 87.2C344.151 85.6667 343.418 84.1333 342.618 82.6C341.818 81.0667 341.051 79.5333 340.318 78ZM379.418 114.9C379.284 114.567 379.151 114.233 379.018 113.9C378.884 113.567 378.751 113.267 378.618 113C376.418 108.933 374.318 104.8 372.318 100.6C370.384 96.4 368.451 92.1667 366.518 87.9C366.451 87.5667 366.351 87.2333 366.218 86.9C366.084 86.5 365.851 86.3 365.518 86.3C365.118 86.3 364.818 86.5 364.618 86.9C364.484 87.2333 364.318 87.5667 364.118 87.9C363.851 88.3667 363.718 88.8333 363.718 89.3C363.784 89.7 363.918 90.1333 364.118 90.6C365.251 93.1333 366.251 95.7333 367.118 98.4C368.051 101.067 369.118 103.667 370.318 106.2C371.318 108.333 372.151 110.567 372.818 112.9C373.551 115.167 374.318 117.433 375.118 119.7C375.251 120.033 375.384 120.467 375.518 121C375.718 121.467 375.984 121.467 376.318 121C376.984 120.133 377.584 119.233 378.118 118.3C378.718 117.3 379.151 116.167 379.418 114.9ZM346.318 127C346.984 126.867 347.618 126.767 348.218 126.7C348.884 126.633 349.518 126.567 350.118 126.5C350.451 126.433 350.718 126.3 350.918 126.1C351.184 125.9 351.251 125.567 351.118 125.1C350.651 122.833 350.184 120.533 349.718 118.2C349.318 115.867 348.718 113.633 347.918 111.5C347.851 111.167 347.718 110.933 347.518 110.8C347.384 110.6 347.151 110.567 346.818 110.7C345.884 111.033 345.084 111.867 344.418 113.2C343.751 114.467 343.551 115.733 343.818 117C344.351 119.733 344.651 122.467 344.718 125.2C344.851 126.6 345.384 127.2 346.318 127ZM448.486 103.4C448.353 105.8 448.22 108.133 448.086 110.4C448.02 112.667 447.92 114.933 447.786 117.2C447.72 117.933 447.553 118.667 447.286 119.4C447.086 120.067 446.62 120.633 445.886 121.1C443.02 122.633 440.086 123.933 437.086 125C434.086 126.133 430.886 126.3 427.486 125.5C425.62 125.1 424.153 125.5 423.086 126.7C422.42 127.367 421.653 127.9 420.786 128.3C419.986 128.767 419.12 129.167 418.186 129.5C414.92 130.567 412.653 129.467 411.386 126.2C409.92 122.267 409.653 118.567 410.586 115.1C411.586 111.567 413.553 108.733 416.486 106.6C419.42 104.4 422.986 103.333 427.186 103.4C427.92 103.4 428.52 103.333 428.986 103.2C429.52 103 429.786 102.467 429.786 101.6C429.853 100.733 429.62 100.1 429.086 99.7C428.62 99.2333 427.986 98.9667 427.186 98.9C424.12 98.6333 421.086 98.6333 418.086 98.9C415.086 99.1 412.22 100.133 409.486 102C408.353 102.867 407.42 103.167 406.686 102.9C405.953 102.567 405.253 101.967 404.586 101.1C402.186 97.5667 400.62 93.9 399.886 90.1C399.22 86.2333 399.286 82.2667 400.086 78.2C400.62 75.3333 401.853 73.1667 403.786 71.7C405.786 70.2333 408.22 69.4333 411.086 69.3C412.42 69.2333 413.753 69.2333 415.086 69.3C416.42 69.3 417.72 69.4333 418.986 69.7C420.92 70.1 422.82 70.3333 424.686 70.4C426.553 70.4667 428.486 69.9667 430.486 68.9C432.22 68.0333 434.02 67.8667 435.886 68.4C437.82 68.8667 439.553 69.8667 441.086 71.4C442.686 72.8667 443.82 74.6667 444.486 76.8C445.953 81.1333 446.92 85.5667 447.386 90.1C447.92 94.5667 448.286 99 448.486 103.4ZM446.786 102.8C446.653 101.267 446.52 99.6 446.386 97.8C446.32 96 446.186 94.1667 445.986 92.3C445.72 89.5667 445.32 86.8333 444.786 84.1C444.253 81.3667 443.42 78.7667 442.286 76.3C441.42 74.2333 440.053 72.6 438.186 71.4C436.32 70.1333 434.486 69.5667 432.686 69.7C431.953 69.7667 431.186 69.9 430.386 70.1C429.653 70.2333 429.153 70.7333 428.886 71.6C428.62 72.2667 428.786 72.8 429.386 73.2C430.053 73.5333 430.62 73.9 431.086 74.3C434.153 76.8333 436.553 79.7 438.286 82.9C440.02 86.0333 441.053 89.6667 441.386 93.8C441.72 97.8667 441.72 101.933 441.386 106C441.12 110 440.753 114.033 440.286 118.1C440.22 118.567 440.153 119.133 440.086 119.8C440.086 120.4 440.386 120.867 440.986 121.2C441.586 121.467 442.153 121.433 442.686 121.1C443.286 120.7 443.853 120.367 444.386 120.1C444.986 119.767 445.386 119.333 445.586 118.8C445.853 118.2 445.986 117.567 445.986 116.9C446.12 114.633 446.253 112.367 446.386 110.1C446.52 107.833 446.653 105.4 446.786 102.8ZM406.386 100.2C408.453 94.4667 411.32 90.6333 414.986 88.7C418.653 86.7 423.02 86.6333 428.086 88.5C430.486 89.3667 432.186 90.8667 433.186 93C434.186 95.0667 434.22 97.2667 433.286 99.6C432.82 100.733 432.32 101.867 431.786 103C431.253 104.067 430.686 105.167 430.086 106.3C429.02 108.233 428.186 110.233 427.586 112.3C426.986 114.367 426.686 116.533 426.686 118.8C426.686 120.067 426.786 121.267 426.986 122.4C427.253 123.533 428.22 124.233 429.886 124.5C432.153 124.833 434.053 124.567 435.586 123.7C437.186 122.833 438.086 121.533 438.286 119.8C438.62 116.467 439.053 113.133 439.586 109.8C440.12 106.467 440.253 103.1 439.986 99.7C439.786 97.2333 439.553 94.8 439.286 92.4C439.02 89.9333 438.453 87.5667 437.586 85.3C436.786 83.0333 435.42 80.8667 433.486 78.8C430.62 75.7333 427.42 73.6333 423.886 72.5C420.42 71.3667 416.753 70.7667 412.886 70.7C409.086 70.5667 406.186 71.6 404.186 73.8C402.253 75.9333 401.253 78.9 401.186 82.7C401.12 85.9 401.486 89.1 402.286 92.3C402.686 93.7 403.153 95.1 403.686 96.5C404.286 97.8333 405.186 99.0667 406.386 100.2ZM421.686 89C418.42 89 415.82 89.5667 413.886 90.7C412.02 91.8333 410.586 93.7 409.586 96.3C409.386 96.7667 409.186 97.2667 408.986 97.8C408.786 98.2667 408.886 98.7 409.286 99.1C409.686 99.5667 410.12 99.7 410.586 99.5C411.12 99.2333 411.62 99.0333 412.086 98.9C415.02 97.9 417.953 97.3 420.886 97.1C423.886 96.8333 426.92 97.0333 429.986 97.7C431.12 97.9667 431.786 97.8667 431.986 97.4C432.186 96.9333 432.186 96.2667 431.986 95.4C431.52 93.1333 430.453 91.5 428.786 90.5C427.186 89.5 424.82 89 421.686 89ZM412.486 119.6C412.553 120.6 412.553 121.6 412.486 122.6C412.486 123.6 412.72 124.6 413.186 125.6C413.586 126.467 414.086 127.167 414.686 127.7C415.286 128.233 416.12 128.4 417.186 128.2C418.32 128 419.42 127.467 420.486 126.6C421.553 125.8 422.453 124.8 423.186 123.6C423.92 122.467 424.32 121.367 424.386 120.3C424.653 118.3 424.953 116.333 425.286 114.4C425.62 112.4 426.153 110.467 426.886 108.6C427.153 108.067 427.42 107.567 427.686 107.1C428.02 106.567 427.92 106.033 427.386 105.5C426.92 104.967 426.353 104.767 425.686 104.9C425.086 104.967 424.486 105.067 423.886 105.2C416.22 106.667 412.42 111.467 412.486 119.6ZM482.21 77.9C482.943 77.3 483.576 76.7667 484.11 76.3C484.71 75.7667 485.276 75.2667 485.81 74.8C487.676 73.1333 489.643 72.0333 491.71 71.5C493.776 70.9 496.01 70.9667 498.41 71.7C498.81 71.8333 499.21 71.9 499.61 71.9C500.01 71.9 500.41 71.8667 500.81 71.8C502.743 71.6 504.576 71.6333 506.31 71.9C508.11 72.1667 508.843 73.2 508.51 75C508.31 76.0667 508.11 77.1333 507.91 78.2C507.71 79.2667 507.443 80.3 507.11 81.3C506.71 82.5667 506.143 83.4333 505.41 83.9C504.743 84.3 503.743 84.4 502.41 84.2C501.876 84.0667 501.51 83.9333 501.31 83.8C499.91 82.7333 498.51 82.1667 497.11 82.1C495.71 82.0333 494.276 82.1667 492.81 82.5C491.41 82.8333 490.01 83.1333 488.61 83.4C487.21 83.6 486.61 84.4333 486.81 85.9C487.143 87.6333 487.443 89.4 487.71 91.2C488.043 92.9333 488.343 94.6667 488.61 96.4C489.276 100 489.743 103.6 490.01 107.2C490.276 110.8 490.543 114.367 490.81 117.9C490.943 119.167 491.043 120.433 491.11 121.7C491.243 122.967 491.376 124.267 491.51 125.6C491.71 127.2 490.976 128.1 489.31 128.3C488.51 128.367 487.676 128.433 486.81 128.5C486.01 128.633 485.376 129.233 484.91 130.3C484.843 130.367 484.643 130.433 484.31 130.5C484.043 130.567 483.776 130.633 483.51 130.7C483.043 130.767 482.543 130.8 482.01 130.8C481.543 130.8 481.043 130.833 480.51 130.9C478.976 131.033 477.943 130.9 477.41 130.5C476.876 130.1 476.543 129.1 476.41 127.5C476.276 125.1 476.143 122.733 476.01 120.4C475.943 118 475.843 115.567 475.71 113.1C475.643 110.567 475.41 108.033 475.01 105.5C474.676 102.9 474.176 100.367 473.51 97.9C473.043 96.0333 472.876 94.1667 473.01 92.3C473.143 90.3667 473.243 88.4667 473.31 86.6C473.443 83.9333 473.776 81.3333 474.31 78.8C474.91 76.2 475.443 73.6 475.91 71C475.976 70.7333 476.076 70.4 476.21 70C476.943 67.6667 477.743 66.2333 478.61 65.7C479.476 65.1667 481.11 65.1 483.51 65.5C484.443 65.6333 485.01 65.8667 485.21 66.2C485.41 66.4667 485.243 67.0333 484.71 67.9C483.843 69.3667 483.21 70.9333 482.81 72.6C482.41 74.2 482.21 75.9667 482.21 77.9ZM477.81 69.4C477.61 70.4667 477.91 71.0667 478.71 71.2C481.11 71.7333 482.676 70.5667 483.41 67.7C483.61 66.9667 483.376 66.5333 482.71 66.4C480.043 65.7333 478.41 66.7333 477.81 69.4ZM480.81 76.5C480.876 76.1667 480.943 75.9 481.01 75.7C481.076 75.5 481.11 75.3 481.11 75.1C481.043 74.6333 481.076 74.1333 481.21 73.6C481.41 73.0667 481.143 72.6667 480.41 72.4C479.543 72 478.743 72 478.01 72.4C477.276 72.8 476.81 73.4667 476.61 74.4C476.41 75.0667 476.21 75.7333 476.01 76.4C475.81 77.0667 475.676 77.7667 475.61 78.5C475.21 82.2333 474.876 86 474.61 89.8C474.41 93.5333 474.743 97.3 475.61 101.1C476.543 105.3 477.076 109.533 477.21 113.8C477.343 118.067 477.476 122.3 477.61 126.5C477.676 127.967 477.876 128.867 478.21 129.2C478.543 129.533 479.41 129.667 480.81 129.6C481.076 129.6 481.31 129.567 481.51 129.5C481.71 129.5 481.943 129.5 482.21 129.5C483.61 129.567 484.31 128.867 484.31 127.4C484.243 124.867 484.11 122.367 483.91 119.9C483.71 117.367 483.376 114.833 482.91 112.3C481.643 104.5 480.843 96.6333 480.51 88.7C480.443 86.9667 480.743 85.7 481.41 84.9C482.076 84.1 483.243 83.4667 484.91 83C486.643 82.6 488.343 82.2667 490.01 82C491.743 81.7333 493.443 81.4667 495.11 81.2C497.11 80.8667 498.31 80.4667 498.71 80C499.176 79.4667 499.276 78.1667 499.01 76.1C498.943 75.7667 498.876 75.4667 498.81 75.2C498.81 74.8667 498.743 74.5667 498.61 74.3C498.076 72.8333 497.043 72.1 495.51 72.1C494.043 71.9667 492.643 72.1 491.31 72.5C489.976 72.9 488.743 73.6333 487.61 74.7C487.01 75.2333 486.41 75.8 485.81 76.4C485.21 76.9333 484.576 77.4667 483.91 78C483.51 78.3333 483.076 78.7 482.61 79.1C482.143 79.5 481.61 79.5333 481.01 79.2C480.543 78.8667 480.41 78.4333 480.61 77.9C480.81 77.3667 480.876 76.9 480.81 76.5ZM506.81 77.6C507.343 75.2667 507.31 73.8 506.71 73.2C506.11 72.5333 504.643 72.3333 502.31 72.6C502.043 72.6667 501.776 72.7333 501.51 72.8C501.31 72.8 501.11 72.8 500.91 72.8C500.11 72.8667 499.81 73.3333 500.01 74.2C500.343 75.2 500.476 76.2 500.41 77.2C500.41 78.2 500.343 79.2 500.21 80.2C500.01 81.0667 500.143 81.7 500.61 82.1C501.143 82.4333 501.743 82.7 502.41 82.9C503.076 83.1667 503.676 83.2333 504.21 83.1C504.743 82.9 505.143 82.4333 505.41 81.7C505.676 80.9667 505.91 80.2667 506.11 79.6C506.31 78.9333 506.543 78.2667 506.81 77.6ZM490.21 125.7C490.143 124.433 490.043 123.167 489.91 121.9C489.776 120.633 489.676 119.367 489.61 118.1C489.276 112.567 488.776 107.1 488.11 101.7C487.443 96.2333 486.576 90.7667 485.51 85.3C485.31 84.3 484.81 84.0667 484.01 84.6C482.61 85.3333 481.91 86.5667 481.91 88.3C481.843 90.3 481.876 92.3 482.01 94.3C482.143 96.3 482.31 98.2667 482.51 100.2C482.976 104.467 483.543 108.733 484.21 113C484.876 117.267 485.31 121.567 485.51 125.9C485.51 126.967 485.976 127.4 486.91 127.2C487.51 127.067 488.143 127.033 488.81 127.1C489.476 127.167 489.943 126.7 490.21 125.7ZM538.514 74.3C539.447 72.1667 540.614 70.5 542.014 69.3C543.48 68.0333 544.947 66.8667 546.414 65.8C546.88 65.4667 547.347 65.2 547.814 65C548.28 64.8 548.78 64.7 549.314 64.7C549.98 64.7 550.48 64.9 550.814 65.3C551.147 65.6333 551.28 66.2667 551.214 67.2C551.147 68.7333 551.647 69.3667 552.714 69.1C553.647 68.8333 554.214 68.8667 554.414 69.2C554.68 69.4667 554.88 70.2333 555.014 71.5C555.147 72.8333 555.28 74.1667 555.414 75.5C555.547 76.7667 555.714 78.0667 555.914 79.4C556.114 80.8 555.747 81.2333 554.814 80.7C553.814 80.1667 552.847 79.9667 551.914 80.1C551.047 80.1667 550.147 80.2667 549.214 80.4C548.214 80.5333 547.747 81.3 547.814 82.7C548.08 87.1667 548.347 91.6333 548.614 96.1C548.947 100.5 549.347 104.933 549.814 109.4C549.88 110.067 549.98 110.733 550.114 111.4C550.247 112 550.347 112.633 550.414 113.3C550.547 113.9 550.614 114.467 550.614 115C550.614 115.533 550.28 115.867 549.614 116C549.214 116.133 549.08 116.6 549.214 117.4C549.547 118.933 549.714 120.467 549.714 122C549.78 123.6 549.914 125.167 550.114 126.7C550.314 128.233 549.88 129.167 548.814 129.5C548.48 129.567 548.114 129.667 547.714 129.8C547.38 130 547.047 130.233 546.714 130.5C545.647 131.367 544.48 131.7 543.214 131.5C542.014 131.3 540.78 130.933 539.514 130.4C538.78 130 538.014 129.8 537.214 129.8C536.414 129.8 535.647 129.767 534.914 129.7C533.647 129.567 532.714 129.1 532.114 128.3C531.58 127.567 531.28 126.367 531.214 124.7C531.214 120.9 531.114 117.1 530.914 113.3C530.78 109.433 530.58 105.567 530.314 101.7C530.18 99.8333 530.114 97.9667 530.114 96.1C530.114 94.1667 530.047 92.2667 529.914 90.4C529.847 89.2667 529.68 88.6 529.414 88.4C529.214 88.2 528.714 88.2333 527.914 88.5C526.447 88.9667 525.614 89.0667 525.414 88.8C525.28 88.5333 525.047 87.3667 524.714 85.3C524.447 83.0333 524.514 81.1667 524.914 79.7C525.314 78.1667 526.48 77.3667 528.414 77.3C529.614 77.1667 530.18 76.1333 530.114 74.2C530.047 73.0667 530.114 72 530.314 71C530.514 69.9333 531.214 69.3333 532.414 69.2C533.08 69.0667 533.714 68.8 534.314 68.4C534.914 67.9333 535.547 67.5667 536.214 67.3C537.547 66.7 538.047 67.3 537.714 69.1C537.58 69.9667 537.58 70.8333 537.714 71.7C537.914 72.5 538.18 73.3667 538.514 74.3ZM540.014 74.9C541.747 74.1667 543.414 73.4667 545.014 72.8C546.614 72.0667 548.18 71.2667 549.714 70.4C550.247 70.1333 550.48 69.5667 550.414 68.7C550.347 67.8333 550.214 67.0667 550.014 66.4C549.814 65.8 549.514 65.6 549.114 65.8C548.714 65.9333 548.347 66.0667 548.014 66.2C546.747 66.9333 545.514 67.7667 544.314 68.7C543.114 69.6333 542.014 70.7333 541.014 72C540.814 72.2667 540.614 72.6333 540.414 73.1C540.28 73.5 540.147 74.1 540.014 74.9ZM533.814 72.1C534.347 71.9667 534.914 71.8333 535.514 71.7C536.18 71.5 536.547 70.8667 536.614 69.8C536.747 68.6 536.447 68.1667 535.714 68.5C535.114 68.7667 534.514 69.0333 533.914 69.3C533.38 69.5667 532.847 69.8333 532.314 70.1C532.047 70.3 531.814 70.5667 531.614 70.9C531.414 71.2333 531.38 71.6333 531.514 72.1C531.647 72.5667 531.847 72.7333 532.114 72.6C532.38 72.4 532.647 72.3 532.914 72.3C533.047 72.3667 533.18 72.3667 533.314 72.3C533.447 72.2333 533.614 72.1667 533.814 72.1ZM554.014 71.7C553.88 70.7667 553.547 70.3333 553.014 70.4C552.614 70.4667 552.247 70.6 551.914 70.8C551.647 70.9333 551.514 71.3 551.514 71.9C551.514 72.5667 551.547 73.2333 551.614 73.9C551.68 74.5 551.714 75.1333 551.714 75.8C551.714 77.3333 551.814 78.2667 552.014 78.6C552.214 78.9333 552.88 79.1667 554.014 79.3C554.68 79.5 554.98 79.1667 554.914 78.3C554.78 77.1667 554.614 76.0667 554.414 75C554.28 73.8667 554.147 72.7667 554.014 71.7ZM533.914 73.2C533.647 73.2667 533.347 73.3333 533.014 73.4C532.747 73.4667 532.447 73.5667 532.114 73.7C531.38 73.8333 531.047 74.3 531.114 75.1C531.247 76.1667 531.08 76.9333 530.614 77.4C530.214 77.8667 529.714 78.1667 529.114 78.3C527.447 78.4333 526.38 79.1 525.914 80.3C525.447 81.5 525.347 83.1667 525.614 85.3C525.814 86.5667 525.98 87.3333 526.114 87.6C526.247 87.8 526.747 87.7667 527.614 87.5C529.147 87.0333 530.047 86.9667 530.314 87.3C530.647 87.5667 530.847 88.8 530.914 91V91.9C530.847 97.4333 531.014 103 531.414 108.6C531.88 114.2 532.18 119.767 532.314 125.3C532.314 126.5 532.48 127.267 532.814 127.6C533.147 128 533.747 128.267 534.614 128.4C535.547 128.467 536.48 128.6 537.414 128.8C538.414 129.067 539.38 129.433 540.314 129.9C541.78 130.567 542.78 130.633 543.314 130.1C543.914 129.567 544.247 128.367 544.314 126.5C544.38 124.5 544.28 122.533 544.014 120.6C543.814 118.6 543.714 116.6 543.714 114.6C543.78 109.267 544.08 104.033 544.614 98.9C545.214 93.7667 545.747 88.6333 546.214 83.5C546.347 82.1667 546.614 81.1333 547.014 80.4C547.414 79.6667 548.147 79.2667 549.214 79.2C550.08 79.0667 550.547 78.5333 550.614 77.6V73.8C550.614 72.3333 550.114 71.8 549.114 72.2C547.447 72.9333 545.814 73.6667 544.214 74.4C542.614 75.1333 541.014 75.9 539.414 76.7C538.68 77.0333 538.18 77.1333 537.914 77C537.714 76.8667 537.547 76.2333 537.414 75.1C537.28 73.9667 537.014 73.2667 536.614 73C536.28 72.6667 535.747 72.6667 535.014 73C534.814 73.0667 534.614 73.1 534.414 73.1C534.28 73.1 534.114 73.1333 533.914 73.2ZM547.114 87.8C546.514 91.6 545.98 95.4333 545.514 99.3C545.047 103.1 544.78 106.967 544.714 110.9C544.714 111.567 544.647 112.3 544.514 113.1C544.38 113.833 544.514 114.467 544.914 115C545.247 115.6 545.68 115.733 546.214 115.4C546.814 115.067 547.347 114.933 547.814 115C547.947 115 548.08 115 548.214 115C548.347 114.933 548.48 114.933 548.614 115C549.547 115 549.88 114.367 549.614 113.1C549.147 110.367 548.78 107.667 548.514 105C548.314 102.267 548.08 99.5667 547.814 96.9C547.68 95.3667 547.547 93.8333 547.414 92.3C547.347 90.7667 547.247 89.2667 547.114 87.8ZM548.614 117.9C548.414 116.767 547.914 116.3 547.114 116.5C546.647 116.7 546.114 116.833 545.514 116.9C544.914 116.9 544.647 117.5 544.714 118.7C544.914 120.767 545.014 122.867 545.014 125C545.08 127.4 545.247 128.733 545.514 129C545.78 129.267 546.714 128.967 548.314 128.1C548.58 127.967 548.814 127.833 549.014 127.7C549.214 127.567 549.314 127.267 549.314 126.8C549.247 125.267 549.147 123.767 549.014 122.3C548.88 120.833 548.747 119.367 548.614 117.9ZM616.214 95.1C616.347 98.5667 616.347 101.9 616.214 105.1C616.08 108.3 615.647 111.467 614.914 114.6C614.514 116.267 613.88 117.933 613.014 119.6C612.147 121.2 610.88 122.7 609.214 124.1C608.147 125.1 606.414 126.033 604.014 126.9C601.68 127.767 599.18 128.433 596.514 128.9C593.914 129.367 591.58 129.533 589.514 129.4C584.647 129 581.547 127.4 580.214 124.6C579.68 123.467 579.28 122.367 579.014 121.3C578.814 120.167 578.68 119 578.614 117.8C578.414 113.467 578.514 109.133 578.914 104.8C579.314 100.467 579.447 96.1333 579.314 91.8C579.247 88.2667 580.114 84.7333 581.914 81.2C582.714 79.6 583.647 78.0333 584.714 76.5C585.847 74.9667 587.48 73.5667 589.614 72.3C594.08 69.7667 599.58 68.7 606.114 69.1C607.314 69.1667 608.347 69.4333 609.214 69.9C610.08 70.3 610.847 70.7667 611.514 71.3C612.78 72.4333 613.78 73.6333 614.514 74.9C615.247 76.1 615.647 77.3667 615.714 78.7C615.847 81.5667 616.014 84.4 616.214 87.2C616.48 89.9333 616.48 92.5667 616.214 95.1ZM613.914 85.6C613.914 84.4 613.947 83.2 614.014 82C614.08 80.8 614.047 79.6 613.914 78.4C613.58 75 611.847 72.6333 608.714 71.3C605.647 69.9 601.614 69.6667 596.614 70.6C595.147 70.8667 593.88 71.3 592.814 71.9C591.814 72.4333 590.914 73.0333 590.114 73.7C587.247 76.1667 585.147 78.7667 583.814 81.5C582.48 84.1667 581.747 86.9333 581.614 89.8C581.547 93.9333 581.38 98.0667 581.114 102.2C580.847 106.333 580.58 110.467 580.314 114.6C580.247 116.467 580.38 118.3 580.714 120.1C581.114 121.833 581.78 123.567 582.714 125.3C583.18 126.167 583.947 126.833 585.014 127.3C586.08 127.833 587.38 128.2 588.914 128.4C590.38 128.6 592.08 128.567 594.014 128.3C595.947 128.1 597.88 127.733 599.814 127.2C601.747 126.667 603.48 126.033 605.014 125.3C606.614 124.633 607.747 123.933 608.414 123.2C610.28 121.2 611.58 119.133 612.314 117C613.114 114.867 613.68 112.667 614.014 110.4C614.614 106.267 614.78 102.133 614.514 98C614.247 93.8667 614.047 89.7333 613.914 85.6ZM607.614 88C607.014 91.2 606.814 94.4667 607.014 97.8C607.28 101.133 607.747 104.467 608.414 107.8C608.614 108.8 608.514 109.767 608.114 110.7C607.78 111.567 606.947 112.367 605.614 113.1C603.147 114.367 600.614 114.9 598.014 114.7C595.414 114.5 593.18 113.567 591.314 111.9C588.247 109.033 586.347 106.067 585.614 103C584.947 99.9333 585.147 96.7667 586.214 93.5C586.747 91.9 587.58 90.3667 588.714 88.9C589.847 87.3667 591.48 86 593.614 84.8C595.214 83.8667 596.947 83.2 598.814 82.8C600.747 82.4 602.447 82.3667 603.914 82.7C606.447 83.3667 607.68 85.1333 607.614 88ZM605.014 93.9C605.08 93.5667 605.114 93.2667 605.114 93C605.18 92.7333 605.214 92.4667 605.214 92.2C605.214 91.1333 605.214 90.0667 605.214 89C605.214 87.8667 605.147 86.7667 605.014 85.7C604.947 85.1667 604.68 84.7 604.214 84.3C603.747 83.9 602.947 83.6667 601.814 83.6C600.68 83.4667 599.814 83.6 599.214 84C598.68 84.3333 598.247 84.7667 597.914 85.3C597.78 85.5667 597.614 85.8667 597.414 86.2C597.28 86.4667 597.147 86.7667 597.014 87.1C595.68 91.1 595.48 95.1667 596.414 99.3C596.747 100.967 597.314 102.567 598.114 104.1C598.914 105.633 600.547 106.967 603.014 108.1C603.414 108.3 603.814 108.5 604.214 108.7C604.68 108.9 605.214 108.9 605.814 108.7C606.347 108.5 606.58 108.267 606.514 108C606.514 107.733 606.48 107.467 606.414 107.2C606.08 104.933 605.747 102.7 605.414 100.5C605.147 98.3 605.014 96.1 605.014 93.9ZM595.114 85.7C593.047 86.8333 591.58 88 590.714 89.2C589.914 90.4 589.28 91.6667 588.814 93C587.547 96.2 587.18 99.3333 587.714 102.4C588.314 105.467 590.147 108.467 593.214 111.4C594.747 112.8 596.48 113.6 598.414 113.8C600.347 114 602.28 113.567 604.214 112.5C605.214 111.967 605.747 111.467 605.814 111C605.947 110.533 605.28 110.067 603.814 109.6C599.88 108.333 597.247 106.333 595.914 103.6C594.447 100.667 593.714 97.7667 593.714 94.9C593.714 91.9667 594.18 88.9 595.114 85.7Z" fill="url(#paint2_linear_28_11)"/>
</g>
<defs>
<filter id="filter0_f_28_11" x="0.5" y="0.499962" width="661.001" height="206.002" filterUnits="userSpaceOnUse" color-interpolation-filters="sRGB">
<feFlood flood-opacity="0" result="BackgroundImageFix"/>
<feBlend mode="normal" in="SourceGraphic" in2="BackgroundImageFix" result="shape"/>
<feGaussianBlur stdDeviation="15" result="effect1_foregroundBlur_28_11"/>
</filter>
<filter id="filter1_d_28_11" x="210.828" y="151.191" width="237.175" height="36.8909" filterUnits="userSpaceOnUse" color-interpolation-filters="sRGB">
<feFlood flood-opacity="0" result="BackgroundImageFix"/>
<feColorMatrix in="SourceAlpha" type="matrix" values="0 0 0 0 0 0 0 0 0 0 0 0 0 0 0 0 0 0 127 0" result="hardAlpha"/>
<feOffset/>
<feGaussianBlur stdDeviation="4.45"/>
<feComposite in2="hardAlpha" operator="out"/>
<feColorMatrix type="matrix" values="0 0 0 0 1 0 0 0 0 1 0 0 0 0 1 0 0 0 0.5 0"/>
<feBlend mode="normal" in2="BackgroundImageFix" result="effect1_dropShadow_28_11"/>
<feBlend mode="normal" in="SourceGraphic" in2="effect1_dropShadow_28_11" result="shape"/>
</filter>
<filter id="filter2_d_28_11" x="28.5254" y="31.2" width="598.788" height="112.3" filterUnits="userSpaceOnUse" color-interpolation-filters="sRGB">
<feFlood flood-opacity="0" result="BackgroundImageFix"/>
<feColorMatrix in="SourceAlpha" type="matrix" values="0 0 0 0 0 0 0 0 0 0 0 0 0 0 0 0 0 0 127 0" result="hardAlpha"/>
<feOffset dy="1"/>
<feGaussianBlur stdDeviation="5.35"/>
<feComposite in2="hardAlpha" operator="out"/>
<feColorMatrix type="matrix" values="0 0 0 0 1 0 0 0 0 1 0 0 0 0 1 0 0 0 0.5 0"/>
<feBlend mode="normal" in2="BackgroundImageFix" result="effect1_dropShadow_28_11"/>
<feBlend mode="normal" in="SourceGraphic" in2="effect1_dropShadow_28_11" result="shape"/>
</filter>
<linearGradient id="paint0_linear_28_11" x1="-14.9028" y1="48.0069" x2="56.5423" y2="318.746" gradientUnits="userSpaceOnUse">
<stop stop-color="#C2E82A"/>
<stop offset="1" stop-color="#A0F142"/>
</linearGradient>
<linearGradient id="paint1_linear_28_11" x1="38" y1="168" x2="624" y2="168" gradientUnits="userSpaceOnUse">
<stop stop-color="#74FE62"/>
<stop offset="1" stop-color="#EDDB0B"/>
</linearGradient>
<linearGradient id="paint2_linear_28_11" x1="22.4104" y1="20.0317" x2="299.623" y2="130.389" gradientUnits="userSpaceOnUse">
<stop stop-color="#FCD600"/>
<stop offset="1" stop-color="#74FF62"/>
</linearGradient>
</defs>
</svg>
